<?xml version="1.0" encoding="UTF-8"?>
<svg xmlns="http://www.w3.org/2000/svg" viewBox="0 0 760 225" font-family="sans-serif" role="img" aria-label="Een strook van 240 in acht delen van 30; drie delen samen zijn 90">
<title>Een strook van 240 in acht delen van 30; drie delen samen zijn 90</title>
<rect x="0" y="0" width="760" height="225" fill="#ffffff"/>
<text x="380.0" y="28.0" font-size="18" text-anchor="middle" fill="#1f2933" font-weight="bold">3/8 van 240</text>
<rect x="60.0" y="78.0" width="80.0" height="50.0" rx="0" fill="#dbe4ff" stroke="#1f2933" stroke-width="1.4"/>
<text x="100.0" y="109.0" font-size="16" text-anchor="middle" fill="#3b5bdb" font-weight="bold">30</text>
<rect x="140.0" y="78.0" width="80.0" height="50.0" rx="0" fill="#dbe4ff" stroke="#1f2933" stroke-width="1.4"/>
<text x="180.0" y="109.0" font-size="16" text-anchor="middle" fill="#3b5bdb" font-weight="bold">30</text>
<rect x="220.0" y="78.0" width="80.0" height="50.0" rx="0" fill="#dbe4ff" stroke="#1f2933" stroke-width="1.4"/>
<text x="260.0" y="109.0" font-size="16" text-anchor="middle" fill="#3b5bdb" font-weight="bold">30</text>
<rect x="300.0" y="78.0" width="80.0" height="50.0" rx="0" fill="#ffffff" stroke="#1f2933" stroke-width="1.4"/>
<text x="340.0" y="109.0" font-size="16" text-anchor="middle" fill="#1f2933" font-weight="normal">30</text>
<rect x="380.0" y="78.0" width="80.0" height="50.0" rx="0" fill="#ffffff" stroke="#1f2933" stroke-width="1.4"/>
<text x="420.0" y="109.0" font-size="16" text-anchor="middle" fill="#1f2933" font-weight="normal">30</text>
<rect x="460.0" y="78.0" width="80.0" height="50.0" rx="0" fill="#ffffff" stroke="#1f2933" stroke-width="1.4"/>
<text x="500.0" y="109.0" font-size="16" text-anchor="middle" fill="#1f2933" font-weight="normal">30</text>
<rect x="540.0" y="78.0" width="80.0" height="50.0" rx="0" fill="#ffffff" stroke="#1f2933" stroke-width="1.4"/>
<text x="580.0" y="109.0" font-size="16" text-anchor="middle" fill="#1f2933" font-weight="normal">30</text>
<rect x="620.0" y="78.0" width="80.0" height="50.0" rx="0" fill="#ffffff" stroke="#1f2933" stroke-width="1.4"/>
<text x="660.0" y="109.0" font-size="16" text-anchor="middle" fill="#1f2933" font-weight="normal">30</text>
<rect x="60.0" y="78.0" width="640.0" height="50.0" rx="0" fill="none" stroke="#1f2933" stroke-width="2.5"/>
<path d="M 60 70 q 0 -12 12 -12 H 688 q 12 0 12 12" fill="none" stroke="#1f2933" stroke-width="1.5"/>
<text x="380.0" y="50.0" font-size="14" text-anchor="middle" fill="#1f2933" font-weight="normal">240 in 8 gelijke delen: 240 : 8 = 30</text>
<path d="M 60 136 q 0 12 12 12 H 288.0 q 12 0 12 -12" fill="none" stroke="#3b5bdb" stroke-width="1.8"/>
<text x="180.0" y="172.0" font-size="15" text-anchor="middle" fill="#3b5bdb" font-weight="bold">3 delen: 3 × 30 = 90</text>
<text x="380.0" y="205.0" font-size="15" text-anchor="middle" fill="#52606d" font-weight="normal">Eerst delen door de noemer, dan vermenigvuldigen met de teller.</text>
</svg>
